<?xml version="1.0" encoding="UTF-8" standalone="no"?>
<!-- Created with Inkscape (http://www.inkscape.org/) -->

<svg
   xmlns:dc="http://purl.org/dc/elements/1.1/"
   xmlns:cc="http://creativecommons.org/ns#"
   xmlns:rdf="http://www.w3.org/1999/02/22-rdf-syntax-ns#"
   xmlns:svg="http://www.w3.org/2000/svg"
   xmlns="http://www.w3.org/2000/svg"
   xmlns:sodipodi="http://sodipodi.sourceforge.net/DTD/sodipodi-0.dtd"
   xmlns:inkscape="http://www.inkscape.org/namespaces/inkscape"
   width="155mm"
   height="218mm"
   viewBox="0 0 155 218"
   version="1.1"
   id="svg8"
   inkscape:version="0.92.2 (5c3e80d, 2017-08-06)"
   sodipodi:docname="developer.svg">
  <defs
     id="defs2">
    <inkscape:path-effect
       effect="bspline"
       id="path-effect1079"
       is_visible="true"
       weight="33.333333"
       steps="2"
       helper_size="0"
       apply_no_weight="true"
       apply_with_weight="true"
       only_selected="false" />
    <inkscape:path-effect
       effect="bspline"
       id="path-effect1079-1"
       is_visible="true"
       weight="33.333333"
       steps="2"
       helper_size="0"
       apply_no_weight="true"
       apply_with_weight="true"
       only_selected="false" />
  </defs>
  <sodipodi:namedview
     id="base"
     pagecolor="#ffffff"
     bordercolor="#666666"
     borderopacity="1.0"
     inkscape:pageopacity="0.0"
     inkscape:pageshadow="2"
     inkscape:zoom="0.70710678"
     inkscape:cx="543.33887"
     inkscape:cy="302.75744"
     inkscape:document-units="mm"
     inkscape:current-layer="layer1"
     showgrid="false"
     inkscape:window-width="1366"
     inkscape:window-height="706"
     inkscape:window-x="-8"
     inkscape:window-y="-8"
     inkscape:window-maximized="1"
     showguides="false" />
  <metadata
     id="metadata5">
    <rdf:RDF>
      <cc:Work
         rdf:about="">
        <dc:format>image/svg+xml</dc:format>
        <dc:type
           rdf:resource="http://purl.org/dc/dcmitype/StillImage" />
        <dc:title></dc:title>
      </cc:Work>
    </rdf:RDF>
  </metadata>
  <g
     inkscape:label="Layer 1"
     inkscape:groupmode="layer"
     id="layer1"
     transform="translate(0,-79)">
    <path
       style="fill:#00000e;fill-opacity:1;stroke:none;stroke-width:0.26458332px;stroke-linecap:butt;stroke-linejoin:miter;stroke-opacity:1"
       d="m 55.074704,245.57057 h 32.927545 v -2.61926 H 55.074704 Z"
       id="path931"
       inkscape:connector-curvature="0" />
    <path
       style="fill:#005c98;fill-opacity:1;stroke:none;stroke-width:0.28093612px;stroke-linecap:butt;stroke-linejoin:miter;stroke-opacity:1"
       d="m 69.862881,243.24761 h 2.789985 v -6.57718 h -2.789985 z"
       id="path933"
       inkscape:connector-curvature="0" />
    <path
       style="fill:#f7f9f7;fill-opacity:1;stroke:none;stroke-width:0.26458332px;stroke-linecap:butt;stroke-linejoin:miter;stroke-opacity:0.81818183"
       d="m 69.566224,207.33012 c -0.730187,-0.6448 -2.206178,-0.93764 -2.910392,-0.26458 -1.404104,1.34199 -1.112664,4.45129 0.264577,5.82083 0.24437,0.243 0.574447,0.438 0.943114,0.57475 1.019994,0.37834 2.335368,0.31077 2.948125,-0.41976 1.252181,-1.49285 0.215107,-4.4215 -1.245424,-5.71124 z"
       id="path856"
       inkscape:connector-curvature="0"
       sodipodi:nodetypes="ssssss" />
    <path
       style="fill:#f7f9f7;fill-opacity:1;stroke:none;stroke-width:0.21266945px;stroke-linecap:butt;stroke-linejoin:miter;stroke-opacity:0.81818183"
       d="m 74.05743,218.12642 8.653119,0.28746 -0.025,3.208 -8.628089,-0.33324 z"
       id="path858"
       inkscape:connector-curvature="0"
       sodipodi:nodetypes="ccccc" />
    <path
       style="fill:#f9a900;fill-opacity:1;stroke:none;stroke-width:0.26458332px;stroke-linecap:butt;stroke-linejoin:miter;stroke-opacity:0.81818183"
       d="m 74.05746,221.28864 v 0 0 l -4.497896,2.91041 16.668667,0.39687 -3.542682,-2.97404 z"
       id="path860"
       inkscape:connector-curvature="0"
       sodipodi:nodetypes="ccccccc" />
    <path
       style="fill:#f92000;fill-opacity:1;stroke:none;stroke-width:0.29249197px;stroke-linecap:butt;stroke-linejoin:miter;stroke-opacity:0.81818183"
       d="m 67.051819,224.17434 c 0,0 -6.952931,1.32874 -10.96089,3.37187 -4.647853,2.36933 -6.772231,17.88276 -6.772231,17.88276 l 8.735182,1.51293 5.764017,-8.52663 0.631067,37.28616 25.736283,-0.37417 0.913164,-35.97568 2.025258,6.83684 11.027751,0.54761 c 0,0 0.48721,-12.93945 -4.252987,-15.4682 -0.32362,-0.17264 -4.757883,-3.50429 -5.068703,-3.63021 -4.749723,-1.92418 -8.601499,-3.0417 -8.601499,-3.0417 z"
       id="path862"
       inkscape:connector-curvature="0"
       sodipodi:nodetypes="csccccccccsscc" />
    <path
       style="fill:#f7f9f7;fill-opacity:1;stroke:none;stroke-width:0.26458332px;stroke-linecap:butt;stroke-linejoin:miter;stroke-opacity:0.81818183"
       d="m 87.886289,207.09744 c 0.730187,-0.6448 2.206178,-0.93764 2.910395,-0.26458 1.404101,1.34199 1.112664,4.45129 -0.26458,5.82083 -0.244367,0.243 -0.574447,0.438 -0.943114,0.57475 -1.019994,0.37834 -2.335365,0.31077 -2.948122,-0.41976 -1.252184,-1.49285 -0.21511,-4.4215 1.245421,-5.71124 z"
       id="path856-0"
       inkscape:connector-curvature="0"
       sodipodi:nodetypes="ssssss" />
    <path
       style="fill:#2c292c;fill-opacity:1;stroke:none;stroke-width:0.28933859px;stroke-linecap:butt;stroke-linejoin:miter;stroke-opacity:0.81818183"
       d="m 85.344604,199.18933 c -2.972102,-2.58911 -10.48582,-1.33672 -12.622398,-0.40456 -7.340388,3.20246 -7.736595,18.03373 -1.241554,21.03784 3.242132,1.49957 10.91601,0.17264 14.277799,0.20228 5.010883,0.0442 7.313191,-14.10419 -0.413847,-20.83556 z"
       id="path864"
       inkscape:connector-curvature="0"
       sodipodi:nodetypes="sssss" />
    <path
       style="fill:#088881;fill-opacity:1;stroke:none;stroke-width:0.20896134px;stroke-linecap:butt;stroke-linejoin:miter;stroke-opacity:1"
       d="m 61.625329,243.58736 c -1.255714,6.4665 -1.825101,14.52515 0.13358,19.93879 1.895208,5.23822 5.10452,10.47976 9.644096,11.88327 5.841077,1.80591 15.82746,1.74519 20.279133,-3.22133 3.332082,-3.71745 4.104756,-14.2596 4.007579,-19.77536 -0.1293,-7.33823 -1.088894,-16.56781 -5.47702,-21.57313 -2.726865,-3.1104 -7.360468,-3.86648 -11.087627,-3.75895 -4.252406,0.12269 -9.470766,1.15848 -12.557068,4.73954 -2.390208,2.77338 -4.109499,7.47659 -4.942673,11.76717 z"
       id="path2424"
       inkscape:connector-curvature="0"
       sodipodi:nodetypes="asssssssa" />
    <path
       style="fill:#088881;fill-opacity:1;stroke:none;stroke-width:0.11145499px;stroke-linecap:butt;stroke-linejoin:miter;stroke-opacity:1"
       d="m 61.323392,281.22081 c -1.255714,1.83965 -1.825101,4.13226 0.133577,5.67239 1.895211,1.49022 5.104523,2.98138 9.644086,3.38067 5.841077,0.51376 15.82746,0.49649 20.279146,-0.91644 3.332069,-1.05757 4.104756,-4.05671 4.007566,-5.62589 -0.12929,-2.08765 -1.088894,-4.71338 -5.477007,-6.13734 -2.726875,-0.88488 -7.360471,-1.09998 -11.087627,-1.06939 -4.252416,0.0349 -9.470769,0.32958 -12.557071,1.34836 -2.390205,0.78899 -4.109496,2.12701 -4.94267,3.34764 z"
       id="path2424-1"
       inkscape:connector-curvature="0"
       sodipodi:nodetypes="asssssssa" />
    <path
       style="fill:#081215;fill-opacity:1;stroke:none;stroke-width:0.26458332px;stroke-linecap:butt;stroke-linejoin:miter;stroke-opacity:1"
       d="m 72.759546,244.87712 v 7.9375 h 12.435338 v -8.20209 H 72.759546 Z"
       id="path2441"
       inkscape:connector-curvature="0" />
    <path
       style="fill:#081215;fill-opacity:1;stroke:none;stroke-width:0.26458332px;stroke-linecap:butt;stroke-linejoin:miter;stroke-opacity:1"
       d="m 73.55329,281.91878 h 10.054103 v 4.7625 H 73.55329 Z"
       id="path2443"
       inkscape:connector-curvature="0" />
    <path
       style="fill:#084629;fill-opacity:1;stroke:none;stroke-width:0.26458332px;stroke-linecap:butt;stroke-linejoin:miter;stroke-opacity:1"
       d="m 77.257429,249.37503 v 35.98333 h 3.174982 v -36.51249 h -3.174982 z"
       id="path2445"
       inkscape:connector-curvature="0" />
  </g>
</svg>
